<svg width="132" height="36" viewBox="0 0 132 36" fill="none" xmlns="http://www.w3.org/2000/svg">
  <rect x="1" y="1" width="34" height="34" rx="11" fill="#F15F2C"/>
  <path d="M13 10H21.5C25.0899 10 28 12.9101 28 16.5C28 20.0899 25.0899 23 21.5 23H18.5V28H13V10ZM18.5 18H21.25C22.2165 18 23 17.2165 23 16.25C23 15.2835 22.2165 14.5 21.25 14.5H18.5V18Z" fill="white"/>
  <path d="M44.5 24V12.36H49.53C50.6167 12.36 51.5033 12.5733 52.19 13C52.89 13.4267 53.41 13.9867 53.75 14.68C54.1033 15.3733 54.28 16.1267 54.28 16.94C54.28 17.7533 54.1033 18.5133 53.75 19.22C53.41 19.9133 52.89 20.4733 52.19 20.9C51.5033 21.3267 50.6167 21.54 49.53 21.54H46.76V24H44.5ZM46.76 19.56H49.35C50.0833 19.56 50.6367 19.3333 51.01 18.88C51.3833 18.4133 51.57 17.7667 51.57 16.94C51.57 16.1267 51.3833 15.4933 51.01 15.04C50.6367 14.5733 50.0833 14.34 49.35 14.34H46.76V19.56Z" fill="#F15F2C"/>
  <path d="M59.5923 24.18C58.5923 24.18 57.7589 23.9733 57.0923 23.56C56.4389 23.1467 55.9456 22.5933 55.6123 21.9C55.2789 21.1933 55.1123 20.4133 55.1123 19.56C55.1123 18.6933 55.2789 17.9133 55.6123 17.22C55.9589 16.5133 56.4589 15.9533 57.1123 15.54C57.7789 15.1267 58.6056 14.92 59.5923 14.92C60.5923 14.92 61.4189 15.1267 62.0723 15.54C62.7389 15.9533 63.2389 16.5133 63.5723 17.22C63.9189 17.9133 64.0923 18.6933 64.0923 19.56C64.0923 20.4133 63.9189 21.1933 63.5723 21.9C63.2389 22.5933 62.7389 23.1467 62.0723 23.56C61.4189 23.9733 60.5923 24.18 59.5923 24.18ZM59.5923 22.28C60.1656 22.28 60.6389 22.0533 61.0123 21.6C61.3856 21.1333 61.5723 20.4533 61.5723 19.56C61.5723 18.6533 61.3856 17.9733 61.0123 17.52C60.6389 17.0667 60.1656 16.84 59.5923 16.84C59.0189 16.84 58.5389 17.0667 58.1523 17.52C57.7789 17.9733 57.5923 18.6533 57.5923 19.56C57.5923 20.4533 57.7789 21.1333 58.1523 21.6C58.5389 22.0533 59.0189 22.28 59.5923 22.28Z" fill="#F15F2C"/>
  <path d="M69.9077 24.18C68.8277 24.18 67.981 23.9267 67.3677 23.42C66.7677 22.9133 66.461 22.2 66.4477 21.28H68.8477C68.8743 21.68 69.0143 21.9933 69.2677 22.22C69.521 22.4467 69.8677 22.56 70.3077 22.56C70.7077 22.56 71.001 22.4733 71.1877 22.3C71.3877 22.1267 71.4877 21.9 71.4877 21.62C71.4877 21.3267 71.3477 21.1067 71.0677 20.96C70.7877 20.8 70.3343 20.64 69.7077 20.48C69.041 20.3067 68.481 20.12 68.0277 19.92C67.5877 19.72 67.201 19.42 66.8677 19.02C66.5477 18.6067 66.3877 18.0533 66.3877 17.36C66.3877 16.7867 66.541 16.2733 66.8477 15.82C67.1543 15.3533 67.5943 14.9867 68.1677 14.72C68.741 14.4533 69.421 14.32 70.2077 14.32C71.3677 14.32 72.281 14.5933 72.9477 15.14C73.6143 15.6733 73.981 16.4 74.0477 17.32H71.7677C71.7277 16.9733 71.5877 16.7 71.3477 16.5C71.121 16.3 70.8077 16.2 70.4077 16.2C70.0477 16.2 69.7743 16.2733 69.5877 16.42C69.401 16.5533 69.3077 16.7533 69.3077 17.02C69.3077 17.2867 69.4477 17.5 69.7277 17.66C70.021 17.8067 70.481 17.96 71.1077 18.12C71.761 18.2933 72.3077 18.4867 72.7477 18.7C73.1877 18.9 73.5677 19.2067 73.8877 19.62C74.221 20.02 74.3943 20.5667 74.4077 21.26C74.4077 21.8467 74.2477 22.38 73.9277 22.86C73.621 23.3267 73.1743 23.6933 72.5877 23.96C72.0143 24.1067 71.121 24.18 69.9077 24.18Z" fill="#F15F2C"/>
  <path d="M78.9237 24.18C77.8437 24.18 76.997 23.9267 76.3837 23.42C75.7837 22.9133 75.477 22.2 75.4637 21.28H77.8637C77.8904 21.68 78.0304 21.9933 78.2837 22.22C78.537 22.4467 78.8837 22.56 79.3237 22.56C79.7237 22.56 80.017 22.4733 80.2037 22.3C80.4037 22.1267 80.5037 21.9 80.5037 21.62C80.5037 21.3267 80.3637 21.1067 80.0837 20.96C79.8037 20.8 79.3504 20.64 78.7237 20.48C78.057 20.3067 77.497 20.12 77.0437 19.92C76.6037 19.72 76.217 19.42 75.8837 19.02C75.5637 18.6067 75.4037 18.0533 75.4037 17.36C75.4037 16.7867 75.557 16.2733 75.8637 15.82C76.1704 15.3533 76.6104 14.9867 77.1837 14.72C77.757 14.4533 78.437 14.32 79.2237 14.32C80.3837 14.32 81.297 14.5933 81.9637 15.14C82.6304 15.6733 82.997 16.4 83.0637 17.32H80.7837C80.7437 16.9733 80.6037 16.7 80.3637 16.5C80.137 16.3 79.8237 16.2 79.4237 16.2C79.0637 16.2 78.7904 16.2733 78.6037 16.42C78.417 16.5533 78.3237 16.7533 78.3237 17.02C78.3237 17.2867 78.4637 17.5 78.7437 17.66C79.037 17.8067 79.497 17.96 80.1237 18.12C80.777 18.2933 81.3237 18.4867 81.7637 18.7C82.2037 18.9 82.5837 19.2067 82.9037 19.62C83.237 20.02 83.4104 20.5667 83.4237 21.26C83.4237 21.8467 83.2637 22.38 82.9437 22.86C82.637 23.3267 82.1904 23.6933 81.6037 23.96C81.0304 24.1067 80.137 24.18 78.9237 24.18Z" fill="#F15F2C"/>
  <path d="M88.7902 24.18C87.8835 24.18 87.1702 23.9533 86.6502 23.5C86.1435 23.0333 85.8902 22.2533 85.8902 21.16V16.98H84.4902V15.1H85.8902L86.1502 12.76H88.1502V15.1H90.3902V16.98H88.1502V21.18C88.1502 21.4733 88.2168 21.6867 88.3502 21.82C88.4968 21.94 88.7368 22 89.0702 22H90.3502V24H88.7902V24.18Z" fill="#F15F2C"/>
  <path d="M95.3596 24.18C94.4129 24.18 93.5863 23.98 92.8796 23.58C92.1729 23.1667 91.6263 22.6067 91.2396 21.9C90.8529 21.1933 90.6596 20.4 90.6596 19.52C90.6596 18.64 90.8463 17.8533 91.2196 17.16C91.5929 16.4533 92.1263 15.9 92.8196 15.5C93.5263 15.1 94.3529 14.9 95.2996 14.9C96.2329 14.9 97.0329 15.0933 97.6996 15.48C98.3796 15.8667 98.8996 16.3933 99.2596 17.06C99.6329 17.7133 99.8196 18.4533 99.8196 19.28C99.8196 19.4133 99.8129 19.5533 99.7996 19.7C99.7996 19.8467 99.7929 20 99.7796 20.16H92.8996C92.9529 20.88 93.2063 21.4267 93.6596 21.8C94.1263 22.1733 94.6796 22.36 95.3196 22.36C95.7996 22.36 96.2063 22.2533 96.5396 22.04C96.8863 21.8267 97.1396 21.54 97.2996 21.18H99.5796C99.4063 21.7667 99.1129 22.3 98.6996 22.78C98.2863 23.2467 97.7729 23.62 97.1596 23.9C96.5596 24.0867 95.9596 24.18 95.3596 24.18ZM95.3596 16.72C94.7863 16.72 94.2729 16.8867 93.8196 17.22C93.3796 17.54 93.0996 18.02 92.9796 18.66H97.5596C97.5196 18.0867 97.3063 17.62 96.9196 17.26C96.5329 16.9 96.0129 16.72 95.3596 16.72Z" fill="#F15F2C"/>
  <path d="M101.497 28V15.1H103.497L103.677 16.32C103.984 15.8933 104.384 15.54 104.877 15.26C105.37 14.98 105.97 14.84 106.677 14.84C107.57 14.84 108.364 15.0467 109.057 15.46C109.75 15.8733 110.29 16.4333 110.677 17.14C111.077 17.8467 111.277 18.64 111.277 19.52C111.277 20.4 111.077 21.1933 110.677 21.9C110.29 22.5933 109.75 23.1467 109.057 23.56C108.377 23.96 107.59 24.16 106.697 24.16C106.097 24.16 105.53 24.04 104.997 23.8C104.477 23.56 104.057 23.2133 103.737 22.76V28H101.497ZM106.337 22.22C106.91 22.22 107.397 22 107.797 21.56C108.197 21.1067 108.397 20.4267 108.397 19.52C108.397 18.6 108.197 17.9133 107.797 17.46C107.397 17.0067 106.91 16.78 106.337 16.78C105.777 16.78 105.29 17.0067 104.877 17.46C104.477 17.9133 104.277 18.6 104.277 19.52C104.277 20.4267 104.477 21.1067 104.877 21.56C105.29 22 105.777 22.22 106.337 22.22Z" fill="#F15F2C"/>
</svg>
