<svg width="156" height="44" viewBox="0 0 156 44" fill="none" xmlns="http://www.w3.org/2000/svg">
  <rect width="156" height="44" rx="14" fill="#F6F6F6"/>
  <rect x="10" y="8" width="28" height="28" rx="9" fill="#F15F2C"/>
  <path d="M19 15H25.9C28.6544 15 30.8889 17.1909 30.8889 19.8929C30.8889 22.595 28.6544 24.7857 25.9 24.7857H23.2333V29H19V15ZM23.2333 21.3214H25.4C26.142 21.3214 26.7444 20.7301 26.7444 20.0001C26.7444 19.2701 26.142 18.6786 25.4 18.6786H23.2333V21.3214Z" fill="white"/>
  <path d="M52.06 28.28V15.24H57.7C58.9533 15.24 59.9667 15.48 60.74 15.96C61.5267 16.4267 62.1067 17.04 62.48 17.8C62.8667 18.56 63.06 19.38 63.06 20.26C63.06 21.1533 62.8667 21.9867 62.48 22.76C62.1067 23.52 61.5267 24.1333 60.74 24.6C59.9667 25.0667 58.9533 25.3 57.7 25.3H54.76V28.28H52.06ZM54.76 23.12H57.4C58.1867 23.12 58.78 22.88 59.18 22.4C59.58 21.9067 59.78 21.1933 59.78 20.26C59.78 19.34 59.58 18.64 59.18 18.16C58.78 17.6667 58.1867 17.42 57.4 17.42H54.76V23.12Z" fill="#242B2C"/>
  <path d="M69.0744 28.5C68.0077 28.5 67.1144 28.28 66.3944 27.84C65.6877 27.4 65.1544 26.8067 64.7944 26.06C64.4344 25.3 64.2544 24.4533 64.2544 23.52C64.2544 22.5867 64.4344 21.7467 64.7944 21C65.1677 20.24 65.7077 19.64 66.4144 19.2C67.1344 18.76 68.0211 18.54 69.0744 18.54C70.1411 18.54 71.0277 18.76 71.7344 19.2C72.4544 19.64 72.9944 20.24 73.3544 21C73.7277 21.7467 73.9144 22.5867 73.9144 23.52C73.9144 24.4533 73.7277 25.3 73.3544 26.06C72.9944 26.8067 72.4544 27.4 71.7344 27.84C71.0277 28.28 70.1411 28.5 69.0744 28.5ZM69.0744 26.3C69.6344 26.3 70.1011 26.08 70.4744 25.64C70.8611 25.1867 71.0544 24.48 71.0544 23.52C71.0544 22.56 70.8611 21.86 70.4744 21.42C70.1011 20.9667 69.6344 20.74 69.0744 20.74C68.5011 20.74 68.0211 20.9667 67.6344 21.42C67.2611 21.86 67.0744 22.56 67.0744 23.52C67.0744 24.48 67.2611 25.1867 67.6344 25.64C68.0211 26.08 68.5011 26.3 69.0744 26.3Z" fill="#242B2C"/>
  <path d="M79.9389 28.5C78.8722 28.5 78.0389 28.2533 77.4389 27.76C76.8522 27.2533 76.5522 26.5467 76.5389 25.64H79.0989C79.1255 26.0133 79.2589 26.3067 79.4989 26.52C79.7522 26.72 80.0922 26.82 80.5189 26.82C80.9189 26.82 81.2122 26.74 81.3989 26.58C81.5989 26.4067 81.6989 26.1867 81.6989 25.92C81.6989 25.6133 81.5522 25.3933 81.2589 25.26C80.9655 25.1133 80.5055 24.96 79.8789 24.8C79.2255 24.6267 78.6722 24.44 78.2189 24.24C77.7655 24.04 77.3722 23.74 77.0389 23.34C76.7189 22.9267 76.5589 22.38 76.5589 21.7C76.5589 21.1267 76.7122 20.6133 77.0189 20.16C77.3389 19.7067 77.7922 19.3533 78.3789 19.1C78.9655 18.8333 79.6522 18.7 80.4389 18.7C81.6255 18.7 82.5589 18.98 83.2389 19.54C83.9322 20.1 84.3055 20.8333 84.3589 21.74H81.9389C81.8989 21.4067 81.7655 21.1467 81.5389 20.96C81.3122 20.76 81.0055 20.66 80.6189 20.66C80.2589 20.66 79.9855 20.7267 79.7989 20.86C79.6255 20.9933 79.5389 21.1933 79.5389 21.46C79.5389 21.7267 79.6855 21.94 79.9789 22.1C80.2722 22.2467 80.7322 22.3933 81.3589 22.54C82.0122 22.7 82.5589 22.8867 82.9989 23.1C83.4522 23.3 83.8389 23.6067 84.1589 24.02C84.4922 24.42 84.6655 24.9667 84.6789 25.66C84.6789 26.2467 84.5122 26.7733 84.1789 27.24C83.8589 27.7067 83.4055 28.0733 82.8189 28.34C82.2322 28.4467 81.2722 28.5 79.9389 28.5Z" fill="#242B2C"/>
  <path d="M90.1784 28.5C89.1118 28.5 88.2784 28.2533 87.6784 27.76C87.0918 27.2533 86.7918 26.5467 86.7784 25.64H89.3384C89.3651 26.0133 89.4984 26.3067 89.7384 26.52C89.9918 26.72 90.3318 26.82 90.7584 26.82C91.1584 26.82 91.4518 26.74 91.6384 26.58C91.8384 26.4067 91.9384 26.1867 91.9384 25.92C91.9384 25.6133 91.7918 25.3933 91.4984 25.26C91.2051 25.1133 90.7451 24.96 90.1184 24.8C89.4651 24.6267 88.9118 24.44 88.4584 24.24C88.0051 24.04 87.6118 23.74 87.2784 23.34C86.9584 22.9267 86.7984 22.38 86.7984 21.7C86.7984 21.1267 86.9518 20.6133 87.2584 20.16C87.5784 19.7067 88.0318 19.3533 88.6184 19.1C89.2051 18.8333 89.8918 18.7 90.6784 18.7C91.8651 18.7 92.7984 18.98 93.4784 19.54C94.1718 20.1 94.5451 20.8333 94.5984 21.74H92.1784C92.1384 21.4067 92.0051 21.1467 91.7784 20.96C91.5518 20.76 91.2451 20.66 90.8584 20.66C90.4984 20.66 90.2251 20.7267 90.0384 20.86C89.8651 20.9933 89.7784 21.1933 89.7784 21.46C89.7784 21.7267 89.9251 21.94 90.2184 22.1C90.5118 22.2467 90.9718 22.3933 91.5984 22.54C92.2518 22.7 92.7984 22.8867 93.2384 23.1C93.6918 23.3 94.0784 23.6067 94.3984 24.02C94.7318 24.42 94.9051 24.9667 94.9184 25.66C94.9184 26.2467 94.7518 26.7733 94.4184 27.24C94.0984 27.7067 93.6451 28.0733 93.0584 28.34C92.4718 28.4467 91.5118 28.5 90.1784 28.5Z" fill="#242B2C"/>
  <path d="M101.184 28.5C100.224 28.5 99.4707 28.2667 98.9239 27.8C98.3772 27.3333 98.1039 26.5533 98.1039 25.46V21.18H96.6839V18.92H98.1039L98.4039 16.1H100.804V18.92H103.084V21.18H100.804V25.22C100.804 25.5267 100.871 25.7467 101.004 25.88C101.151 26 101.397 26.06 101.744 26.06H103.044V28.28H101.184V28.5Z" fill="#242B2C"/>
  <path d="M108.618 28.5C107.631 28.5 106.764 28.2933 106.018 27.88C105.271 27.4533 104.691 26.8733 104.278 26.14C103.878 25.3933 103.678 24.56 103.678 23.64C103.678 22.72 103.871 21.9 104.258 21.18C104.658 20.4467 105.224 19.8733 105.958 19.46C106.704 19.0333 107.571 18.82 108.558 18.82C109.531 18.82 110.364 19.02 111.058 19.42C111.764 19.8067 112.304 20.34 112.678 21.02C113.051 21.6867 113.238 22.4467 113.238 23.3C113.238 23.4333 113.231 23.58 113.218 23.74C113.218 23.8867 113.211 24.04 113.198 24.2H106.338C106.404 24.8267 106.644 25.3133 107.058 25.66C107.484 26.0067 108.004 26.18 108.618 26.18C109.071 26.18 109.458 26.08 109.778 25.88C110.098 25.68 110.338 25.4067 110.498 25.06H113.038C112.851 25.66 112.551 26.2 112.138 26.68C111.738 27.1467 111.231 27.52 110.618 27.8C110.018 28.2667 109.351 28.5 108.618 28.5ZM108.618 21.02C108.071 21.02 107.578 21.1733 107.138 21.48C106.711 21.7867 106.431 22.2467 106.298 22.86H110.678C110.638 22.3 110.424 21.8533 110.038 21.52C109.664 21.1867 109.191 21.02 108.618 21.02Z" fill="#242B2C"/>
  <path d="M115.263 32V18.92H117.643L117.863 20.16C118.169 19.7333 118.576 19.38 119.083 19.1C119.589 18.8067 120.203 18.66 120.923 18.66C121.843 18.66 122.649 18.88 123.343 19.32C124.049 19.7467 124.596 20.3267 124.983 21.06C125.383 21.7933 125.583 22.62 125.583 23.54C125.583 24.46 125.383 25.2933 124.983 26.04C124.596 26.7733 124.049 27.3533 123.343 27.78C122.649 28.2067 121.849 28.42 120.943 28.42C120.316 28.42 119.736 28.3 119.203 28.06C118.683 27.82 118.263 27.48 117.943 27.04V32H115.263ZM120.343 26.14C120.943 26.14 121.449 25.9133 121.863 25.46C122.276 25.0067 122.483 24.3667 122.483 23.54C122.483 22.7133 122.276 22.0733 121.863 21.62C121.449 21.1667 120.943 20.94 120.343 20.94C119.743 20.94 119.236 21.1667 118.823 21.62C118.409 22.0733 118.203 22.7133 118.203 23.54C118.203 24.3667 118.409 25.0067 118.823 25.46C119.236 25.9133 119.743 26.14 120.343 26.14Z" fill="#242B2C"/>
</svg>
